<?xml version="1.0" encoding="UTF-8" standalone="no"?>
<svg width="138px" height="46px" viewBox="0 0 138 46" version="1.1" xmlns="http://www.w3.org/2000/svg" xmlns:xlink="http://www.w3.org/1999/xlink" xmlns:sketch="http://www.bohemiancoding.com/sketch/ns">
    <!-- Generator: Sketch 3.2.2 (9983) - http://www.bohemiancoding.com/sketch -->
    <title>logo_fullstack</title>
    <desc>Created with Sketch.</desc>
    <defs></defs>
    <g id="Page-1" stroke="none" stroke-width="1" fill="none" fill-rule="evenodd" sketch:type="MSPage">
        <g id="logo_fullstack" sketch:type="MSLayerGroup">
            <g id="Page-1" sketch:type="MSShapeGroup">
                <g id="fullstack-logo-big-+-Group">
                    <g id="fullstack-logo-big">
                        <rect id="Rectangle-path" fill="#FFFFFF" x="0.0431384808" y="0.164" width="137.956862" height="44.88"></rect>
                        <path d="M35.7618006,18.644 L24.8909034,18.644 L24.8909034,20.932 L35.7618006,20.932 L35.7618006,18.644 L35.7618006,18.644 Z M8.32572679,25.684 L17.8161926,25.684 L17.8161926,23.396 L8.32572679,23.396 L8.32572679,25.684 L8.32572679,25.684 Z M3.1491091,30.436 L17.8161926,30.436 L17.8161926,28.148 L3.1491091,28.148 L3.1491091,30.436 L3.1491091,30.436 Z M39.5579869,13.892 L24.8909034,13.892 L24.8909034,16.18 L39.5579869,16.18 L39.5579869,13.892 L39.5579869,13.892 Z M24.8909034,23.396 L24.8909034,25.684 L40.4207565,25.684 L40.4207565,23.396 L24.8909034,23.396 L24.8909034,23.396 Z M20.2319475,37.124 L22.4751485,37.124 L22.4751485,8.964 L20.2319475,8.964 L20.2319475,37.124 L20.2319475,37.124 Z M4.01187871,20.932 L17.8161926,20.932 L17.8161926,18.644 L4.01187871,18.644 L4.01187871,20.932 L4.01187871,20.932 Z M24.8909034,30.436 L34.8990309,30.436 L34.8990309,28.148 L24.8909034,28.148 L24.8909034,30.436 L24.8909034,30.436 Z M7.46295717,16.18 L17.8161926,16.18 L17.8161926,13.892 L7.46295717,13.892 L7.46295717,16.18 L7.46295717,16.18 Z" id="Shape" fill="#1D9982"></path>
                        <path d="M120.613553,27.342448 C120.446607,27.342448 120.296658,27.397624 120.162583,27.504456 C120.029372,27.610496 119.871485,27.729032 119.690389,27.859272 C119.509208,27.987928 119.28739,28.107432 119.021053,28.214176 C118.758426,28.321096 118.41211,28.374512 117.983486,28.374512 C117.556588,28.374512 117.171361,28.290296 116.830481,28.123712 C116.489687,27.958008 116.201263,27.715392 115.962362,27.393928 C115.722857,27.071672 115.53995,26.675056 115.413037,26.200736 C115.286037,25.728088 115.222106,25.188472 115.222106,24.583736 C115.222106,23.998888 115.279048,23.4774 115.396126,23.014872 C115.512428,22.553224 115.687397,22.160216 115.923365,21.834792 C116.158728,21.510248 116.454054,21.260856 116.809257,21.086528 C117.164286,20.912288 117.577898,20.826224 118.04828,20.826224 C118.417545,20.826224 118.726417,20.868728 118.975844,20.954264 C119.226219,21.03936 119.441826,21.134928 119.622921,21.24308 C119.804016,21.349912 119.960178,21.44636 120.091577,21.531456 C120.221252,21.616992 120.354291,21.658616 120.492679,21.658616 C120.636503,21.658616 120.747455,21.629664 120.823896,21.570352 C120.900165,21.51104 120.977383,21.43052 121.058224,21.326856 L121.763884,20.3292 C121.263305,19.818624 120.700606,19.427024 120.073804,19.153696 C119.447175,18.88028 118.71753,18.743088 117.884958,18.743088 C117.008125,18.743088 116.233185,18.891632 115.558586,19.187136 C114.884849,19.482728 114.320425,19.891488 113.86333,20.411568 C113.407097,20.932616 113.060954,21.550024 112.825849,22.262912 C112.589709,22.976856 112.472459,23.750024 112.472459,24.585672 C112.472459,25.51636 112.604721,26.345584 112.869247,27.074312 C113.132909,27.801368 113.493202,28.416928 113.945897,28.919408 C114.398592,29.421888 114.929368,29.804864 115.538311,30.0664 C116.147254,30.328904 116.795107,30.460376 117.48308,30.460376 C117.873483,30.460376 118.268545,30.430368 118.668008,30.370616 C119.065572,30.311832 119.451747,30.209576 119.825413,30.0664 C120.198129,29.92252 120.558595,29.730592 120.904738,29.490704 C121.254505,29.249848 121.575714,28.952936 121.872161,28.597944 L121.100069,27.600288 C120.99343,27.428424 120.83192,27.342448 120.613553,27.342448 L120.613553,27.342448 L120.613553,27.342448 Z M67.7018768,27.143216 C67.3406352,27.511672 66.9562713,27.803216 66.5497343,28.013272 C66.1441463,28.22412 65.7100869,28.328224 65.2466933,28.328224 C64.6156636,28.328224 64.1425208,28.139992 63.8274373,27.758864 C63.510542,27.377648 63.3543807,26.84076 63.3543807,26.14644 L63.3543807,18.918384 L60.6703045,18.918384 L60.6703045,26.14644 C60.6703045,26.782064 60.7528715,27.363216 60.915331,27.89192 C61.0786533,28.419744 61.31997,28.876112 61.6378143,29.26164 C61.9572979,29.645496 62.3496855,29.941616 62.818342,30.153432 C63.2851866,30.363488 63.8231235,30.46944 64.4310309,30.46944 C64.7994336,30.46944 65.1473886,30.431336 65.4704958,30.352576 C65.7917912,30.274784 66.0927252,30.1698 66.3713998,30.030408 C66.6509372,29.895504 66.9137368,29.72892 67.1586771,29.532416 C67.4054292,29.33688 67.6451066,29.121368 67.8758112,28.884296 L68.0604439,29.793248 C68.1688078,30.124656 68.3977005,30.38804 68.7456555,30.38804 L70.3860394,30.38804 L70.3860394,18.918384 L67.7018768,18.918384 L67.7018768,27.143216 L67.7018768,27.143216 Z M72.6298443,30.386984 L75.3157324,30.386984 L75.3157324,13.895608 L72.6298443,13.895608 L72.6298443,30.386984 L72.6298443,30.386984 Z M49.7386683,30.386984 L52.6837324,30.386984 L52.6837324,23.761904 L58.5631622,23.761904 L58.5631622,21.37992 L52.6837324,21.37992 L52.6837324,16.635136 L59.649648,16.635136 L59.649648,13.895608 L49.7386683,13.895608 L49.7386683,30.386984 L49.7386683,30.386984 Z M77.6004326,30.386984 L80.2845089,30.386984 L80.2845089,13.895608 L77.6004326,13.895608 L77.6004326,30.386984 L77.6004326,30.386984 Z M91.6423532,22.392976 C91.301473,22.07204 90.9135717,21.80628 90.4803751,21.596752 C90.0445039,21.384496 89.6007815,21.199784 89.1481726,21.041296 C88.6955636,20.882896 88.2516686,20.732592 87.8167465,20.59364 C87.3818243,20.45284 86.9948721,20.294 86.6539919,20.116152 C86.3131979,19.938216 86.0397862,19.724112 85.8338431,19.472872 C85.6279,19.22172 85.5240225,18.90844 85.5240225,18.53092 C85.5240225,18.236208 85.5763926,17.96464 85.6766465,17.716128 C85.7769866,17.467616 85.9314223,17.25624 86.1391772,17.078304 C86.3451204,16.901336 86.5989472,16.761944 86.8989322,16.662768 C87.1997799,16.562712 87.5540331,16.513872 87.9587584,16.513872 C88.4077437,16.513872 88.7984058,16.570016 89.1268621,16.685912 C89.456095,16.79996 89.7445189,16.928088 89.9904083,17.06792 C90.2363839,17.20828 90.4502645,17.335968 90.6321363,17.450016 C90.8115061,17.564944 90.9756049,17.622408 91.1203776,17.622408 C91.2659269,17.622408 91.3910284,17.589848 91.4948196,17.52332 C91.5997324,17.456352 91.6928253,17.342304 91.7726314,17.179328 L92.4898518,15.772032 C91.9405264,15.24016 91.2730016,14.635336 90.4909872,14.339832 C89.7091454,14.04424 88.8534505,13.895784 87.9266633,13.895784 C87.1083264,13.895784 86.3804939,14.02576 85.7414405,14.283248 C85.1050616,14.541792 84.566262,15.075864 84.1286652,15.504072 C83.6910685,15.9314 83.3574354,16.424816 83.1282838,16.978424 C82.8993048,17.532472 82.7857643,18.10104 82.7857643,18.6858 C82.7857643,19.417344 82.8886927,20.032024 83.0963614,20.530896 C83.3023045,21.029328 83.5757162,21.444864 83.9165102,21.778472 C84.2573904,22.109352 84.6445152,22.37916 85.078402,22.587808 C85.5142732,22.795136 85.9563564,22.971664 86.4045652,23.11836 C86.8535505,23.265936 87.2947709,23.40348 87.7305558,23.52844 C88.1663407,23.6534 88.5533792,23.807312 88.8933967,23.988328 C89.2341907,24.16952 89.5066533,24.39392 89.7144083,24.658272 C89.9203514,24.924384 90.0215542,25.268464 90.0215542,25.690424 C90.0215542,26.443616 89.7943007,27.02204 89.3380681,27.424024 C88.8819219,27.8268 88.2374329,28.02788 87.4031347,28.02788 C86.859935,28.02788 86.3956786,27.95264 86.0078637,27.801544 C85.6190134,27.649392 85.2834823,27.481048 84.996784,27.297304 C84.7118975,27.112592 84.4633335,26.944248 84.2521275,26.793064 C84.0435098,26.641 83.8474023,26.56488 83.666307,26.56488 C83.5286089,26.56488 83.4025583,26.599376 83.2907434,26.669864 C83.1780656,26.740528 83.0822119,26.827472 83.0041313,26.930608 L82.1555974,28.361136 C82.4591197,28.678024 82.8052629,28.965784 83.1941132,29.22556 C83.5809791,29.483664 83.9981282,29.706392 84.4437487,29.890224 C84.8875574,30.075728 85.3544883,30.216968 85.8390197,30.316584 C86.3246727,30.416288 86.8180907,30.4668 87.3178068,30.4668 C88.1867884,30.4668 88.9581044,30.331104 89.6326177,30.061384 C90.3054917,29.791576 90.8770766,29.423032 91.3440075,28.95408 C91.8117149,28.484248 92.1658818,27.933896 92.4091829,27.30276 C92.6522251,26.669952 92.7730991,25.992704 92.7730991,25.268464 C92.7730991,24.603976 92.6701707,24.037344 92.4632785,23.57376 C92.2565589,23.108152 91.9831472,22.71532 91.6423532,22.392976 L91.6423532,22.392976 L91.6423532,22.392976 Z M129.814473,24.770296 C129.698948,24.600984 129.581957,24.442584 129.465569,24.293248 C129.349268,24.14752 129.216143,24.017104 129.063519,23.905784 C129.216229,23.808808 129.358154,23.697664 129.487829,23.568128 C129.619142,23.43868 129.745193,23.296472 129.868569,23.1408 L133.334746,18.917504 L130.879562,18.917504 C130.654121,18.917504 130.473025,18.960976 130.3355,19.046424 C130.197802,19.130728 130.067351,19.247416 129.943975,19.394992 L127.172932,22.887272 C127.055767,23.026752 126.948266,23.12364 126.846373,23.17512 C126.74517,23.227744 126.603158,23.253088 126.422926,23.253088 L125.92321,23.253088 L125.92321,13.895608 L123.239133,13.895608 L123.239133,30.387072 L125.92321,30.387072 L125.92321,25.081816 L126.53129,25.081816 C126.748794,25.081816 126.91203,25.10628 127.020308,25.159784 C127.128671,25.211352 127.236949,25.32276 127.347038,25.490136 L130.181927,29.899992 C130.297279,30.076608 130.428593,30.201568 130.574228,30.275752 C130.718052,30.350024 130.895524,30.38628 131.106816,30.38628 L133.529991,30.38628 L129.814473,24.770296 L129.814473,24.770296 Z M109.882511,19.943584 C109.528344,19.55524 109.094284,19.252872 108.584819,19.035072 C108.073542,18.81736 107.492208,18.7078 106.839695,18.7078 C105.029087,18.7078 103.481968,19.30664 102.199375,20.503528 L102.689428,21.379832 C102.76932,21.519752 102.874061,21.637408 103.00546,21.733856 C103.135825,21.830216 103.289312,21.878264 103.472219,21.878264 C103.688774,21.878264 103.889454,21.825728 104.07055,21.722592 C104.249833,21.619808 104.448701,21.502944 104.661719,21.373056 C104.874651,21.244048 105.126838,21.127272 105.416125,21.024576 C105.706361,20.920912 106.069414,20.869784 106.503474,20.869784 C107.104393,20.869784 107.5633,21.053528 107.878383,21.422512 C108.194416,21.791408 108.350663,22.358568 108.350663,23.126368 L108.350663,23.796224 C107.083168,23.796224 106.022566,23.906752 105.167647,24.129392 C104.311952,24.35212 103.628639,24.630992 103.113738,24.969528 C102.598923,25.306392 102.230607,25.683824 102.009479,26.103056 C101.789473,26.5222 101.679384,26.9468 101.679384,27.376856 C101.679384,27.888312 101.759276,28.337376 101.918112,28.7222 C102.07712,29.108784 102.300837,29.43104 102.58486,29.689936 C102.871559,29.948832 103.214078,30.144368 103.612678,30.273992 C104.01214,30.40344 104.447062,30.468648 104.917444,30.468648 C105.315008,30.468648 105.678925,30.436 106.003844,30.368944 C106.330575,30.302944 106.637634,30.20236 106.927784,30.070096 C107.218019,29.938008 107.498592,29.773272 107.770192,29.577648 C108.041792,29.381232 108.319604,29.154016 108.602765,28.89688 L108.84063,29.802224 C108.913448,30.038504 109.021812,30.195056 109.166326,30.273024 C109.311961,30.350904 109.511606,30.388832 109.76457,30.388832 L110.970808,30.388832 L110.970808,23.109912 C110.970808,22.46716 110.878492,21.876504 110.693946,21.336976 C110.507415,20.795512 110.23754,20.332016 109.882511,19.943584 L109.882511,19.943584 L109.882511,19.943584 Z M108.350491,27.37316 C108.15516,27.576792 107.960001,27.752528 107.768208,27.900896 C107.5765,28.051288 107.376855,28.176248 107.169963,28.277624 C106.96402,28.379792 106.745653,28.455912 106.513223,28.506688 C106.281397,28.558168 106.028519,28.5836 105.752519,28.5836 C105.303361,28.5836 104.938582,28.480376 104.660684,28.2712 C104.381233,28.062112 104.242758,27.716272 104.242758,27.232712 C104.242758,26.987456 104.309278,26.76024 104.443266,26.552032 C104.577254,26.342856 104.803645,26.16272 105.123215,26.0052 C105.441836,25.84944 105.862522,25.719992 106.388898,25.619496 C106.915274,25.51988 107.5677,25.469192 108.350491,25.469192 L108.350491,27.37316 L108.350491,27.37316 Z M99.8242563,27.946304 C99.7736118,27.90644 99.7088178,27.885672 99.6290116,27.885672 C99.5631822,27.885672 99.4984745,27.90644 99.4327315,27.946304 C99.3680238,27.987048 99.2934805,28.029552 99.2117762,28.073904 C99.127311,28.118168 99.028869,28.16164 98.9170541,28.201504 C98.8052391,28.243128 98.6659018,28.263016 98.4980932,28.263016 C98.2096693,28.263016 97.9780156,28.163488 97.8031322,27.963376 C97.6283351,27.764232 97.5430072,27.486328 97.5430072,27.133272 L97.5430072,20.970632 L100.47651,20.970632 L100.47651,19.019144 L97.5430072,19.019144 L97.5430072,15.440008 L96.1512735,15.440008 C95.9914886,15.440008 95.8610378,15.479872 95.7544858,15.561272 C95.6487965,15.64276 95.583226,15.757688 95.5538918,15.905264 L94.9893817,19.0092 L93.1955111,19.3084 L93.1955111,20.39476 C93.1955111,20.586688 93.2478812,20.730568 93.351845,20.827104 C93.4583107,20.923464 93.5825495,20.971512 93.7281851,20.971512 L94.8572054,20.971512 L94.8572054,27.323352 C94.8572054,28.306488 95.1181069,29.076928 95.6399962,29.633704 C96.1619719,30.19136 96.9038675,30.470232 97.8669772,30.470232 C98.4112123,30.470232 98.9357762,30.385136 99.4425671,30.214944 C99.950307,30.045632 100.399379,29.79492 100.789954,29.462632 L99.9857668,28.130928 C99.9307221,28.04944 99.8756774,27.987048 99.8242563,27.946304 L99.8242563,27.946304 L99.8242563,27.946304 Z" id="Shape" fill="#243330"></path>
                    </g>
                </g>
            </g>
        </g>
    </g>
</svg>