<?xml version="1.0" encoding="utf-8"?>
<!-- Generator: Adobe Illustrator 15.1.0, SVG Export Plug-In . SVG Version: 6.00 Build 0)  -->
<!DOCTYPE svg PUBLIC "-//W3C//DTD SVG 1.1//EN" "http://www.w3.org/Graphics/SVG/1.1/DTD/svg11.dtd">
<svg version="1.1" id="Layer_1" xmlns="http://www.w3.org/2000/svg" xmlns:xlink="http://www.w3.org/1999/xlink" x="0px" y="0px"
	 width="245px" height="45px" viewBox="0 0 245 45" enable-background="new 0 0 245 45" xml:space="preserve">
<g>
	<path fill="#A6DDF3" d="M94.3,30.8c-0.2-0.2-0.5-0.4-0.7-0.6c0.9,0.3,1.7,0.4,2.6,0.3c1-0.1,2.1-0.4,3-0.9c1.7-1,2.8-2.1,3.4-3.6
		c0.6-1.4,0.8-3,0.8-4.7h13c0,1.8-0.2,3.5-0.5,5.3c-0.4,1.8-1,3.5-1.9,5.1c-0.5,1-1.2,1.9-1.9,2.8c-1.3,0.4-2.6,0.7-4,0.8
		c-2.5,0.2-5-0.1-7.3-0.9C98.5,33.7,96.3,32.5,94.3,30.8z M87,9.9c-0.5,2.4-0.6,4.9-0.3,7.5c0,0.3,0.1,0.7,0.2,1
		c0.2-0.9,0.5-1.7,1.1-2.5c0.6-0.9,1.4-1.6,2.4-2.2c1.6-0.9,3.2-1.3,4.6-1c1.5,0.2,2.9,0.8,4.3,1.7l6.6-11.3
		c-1.5-0.9-3.1-1.7-4.8-2.2C99.4,0.3,97.7,0,95.9,0c-1,0-1.9,0-2.9,0.1c-1.1,0.9-2.1,2-2.9,3.1C88.5,5.2,87.5,7.5,87,9.9z"/>
	
		<linearGradient id="SVGID_1_" gradientUnits="userSpaceOnUse" x1="403" y1="-238.9141" x2="403" y2="-281.8491" gradientTransform="matrix(1 0 0 -1 -311 -238.5)">
		<stop  offset="0" style="stop-color:#A4DCF2"/>
		<stop  offset="1" style="stop-color:#49B4E1"/>
	</linearGradient>
	<path fill="url(#SVGID_1_)" d="M108.2,36.5c-2.7,0.2-5.3,0-7.8-0.8c-2.5-0.8-4.8-2-7-3.8c-1.9-1.5-3.4-3.4-4.8-5.5
		c-0.2-0.3-0.4-0.7-0.6-1l0.1-0.1c-0.2-0.4-0.4-0.7-0.5-1.1c-1.1-2.2-1.8-4.4-2.1-6.7c-0.4-2.7-0.3-5.4,0.3-7.9
		c0.6-2.6,1.7-5,3.3-7.2c0.5-0.7,1.1-1.4,1.8-2.1c-0.2,0-0.4,0.1-0.5,0.1c-1.9,0.5-3.9,1.3-5.8,2.4c-2.8,1.6-5,3.5-6.8,5.7
		c-1.8,2.2-3.1,4.7-3.8,7.3c-0.8,2.6-1,5.4-0.7,8.2c0.3,2.8,1.2,5.6,2.7,8.2l0.1,0.1c1.6,2.8,3.5,5,5.8,6.7c2.3,1.7,4.8,2.9,7.4,3.6
		c2.6,0.7,5.3,0.8,8,0.4c2.7-0.4,5.3-1.3,7.8-2.7c2.2-1.2,4.1-2.6,5.5-4.1c0.1-0.1,0.1-0.2,0.2-0.2
		C109.9,36.3,109.1,36.5,108.2,36.5z"/>
	<path fill="#020202" d="M130,14.7c3.3,0,4.9,1.9,4.9,1.9l-1.2,1.8c0,0-1.4-1.5-3.6-1.5c-2.6,0-4.5,2-4.5,4.6c0,2.7,1.9,4.7,4.6,4.7
		c2.4,0,4-1.8,4-1.8l1,1.8c0,0-1.8,2.1-5.2,2.1c-4.1,0-7-2.9-7-6.8C123,17.6,125.9,14.7,130,14.7z"/>
	<path fill="#020202" d="M137,15h2.4v2.3c0,0.5-0.1,1-0.1,1h0.1c0.6-1.9,2.1-3.4,4.1-3.4c0.3,0,0.6,0.1,0.6,0.1v2.5
		c0,0-0.3-0.1-0.7-0.1c-1.6,0-3.1,1.1-3.7,3.1c-0.2,0.7-0.3,1.5-0.3,2.3v5.3h-2.5V15H137z"/>
	<path fill="#020202" d="M152.7,19.9h0.6v-0.2c0-2.1-1.2-2.9-2.9-2.9c-2,0-3.6,1.3-3.6,1.3l-1-1.8c0,0,1.9-1.5,4.9-1.5
		c3.3,0,5.2,1.8,5.2,5.1v8.3h-2.3V27c0-0.6,0.1-1,0.1-1h-0.1c0,0-1.1,2.6-4.2,2.6c-2.2,0-4.4-1.4-4.4-4
		C144.8,20.1,150.5,19.9,152.7,19.9z M149.8,26.3c2.1,0,3.5-2.2,3.5-4.2v-0.4h-0.6c-1.9,0-5.3,0.1-5.3,2.5
		C147.3,25.3,148.2,26.3,149.8,26.3z"/>
	<path fill="#020202" d="M158.3,15h2.4v1.7c0,0.5-0.1,1-0.1,1h0.1c0.6-1.5,2.5-3,4.5-3c2.2,0,3.5,1,3.9,3h0.1c0.7-1.6,2.5-3,4.6-3
		c2.9,0,4.3,1.7,4.3,5v8.4h-2.5v-7.8c0-1.8-0.4-3.3-2.3-3.3c-1.8,0-3.2,1.5-3.7,3.3c-0.1,0.5-0.2,1.1-0.2,1.8v6h-2.5v-7.8
		c0-1.7-0.3-3.3-2.3-3.3c-1.9,0-3.3,1.6-3.7,3.4c-0.1,0.5-0.2,1.1-0.2,1.7v6h-2.5V15H158.3z"/>
	<path fill="#020202" d="M194.1,15h2.4v2.3c0,0.5-0.1,1-0.1,1h0.1c0.6-1.9,2.1-3.4,4.1-3.4c0.3,0,0.6,0.1,0.6,0.1v2.5
		c0,0-0.3-0.1-0.7-0.1c-1.6,0-3.1,1.1-3.7,3.1c-0.2,0.7-0.3,1.5-0.3,2.3v5.3h-2.4V15z"/>
	<path fill="#2AA7DF" d="M208.8,14.7c3,0,4,2.1,4,2.1l0,0c0,0,0-0.4,0-0.9v-6h2.5v18.2h-2.4v-1.2c0-0.5,0-0.9,0-0.9h-0.1
		c0,0-1.1,2.4-4.3,2.4c-3.5,0-5.8-2.8-5.8-6.8C202.9,17.3,205.4,14.7,208.8,14.7z M209.2,26.2c1.9,0,3.8-1.4,3.8-4.7
		c0-2.3-1.2-4.6-3.7-4.6c-2.1,0-3.8,1.7-3.8,4.7C205.5,24.3,207,26.2,209.2,26.2z"/>
	<path fill="#2AA7DF" d="M229.8,15h2.7l3.2,8.8c0.3,0.7,0.4,1.8,0.4,1.8l0,0c0,0,0.2-1.1,0.5-1.8l3.2-8.8h2.6l-4.8,13.1h-2.9
		L229.8,15z"/>
	<path fill="#2AA7DF" d="M228.3,24.7L228.3,24.7c-0.1-0.1-1.7,1.4-3.9,1.4c-2.3,0-4.4-1.4-4.5-4.3h9.5c0,0,0.1-0.7,0.1-1.1
		c0-3.4-2-6.1-5.7-6.1s-6.5,2.7-6.5,6.8c0,3.9,2.8,6.8,6.9,6.8c2.5,0,4.2-1.2,4.8-1.6L228.3,24.7z M223.8,16.6
		c1.7,0,3.1,1.1,3.2,3.3h-7C220.4,17.8,221.9,16.6,223.8,16.6z"/>
	<path fill="#020202" d="M191.1,25l-0.2-0.3c0,0-1.6,1.5-3.9,1.5c-2.3,0-4.4-1.4-4.5-4.3h9.5c0,0,0.1-0.7,0.1-1.1
		c0-3.4-2-6.1-5.7-6.1s-6.5,2.7-6.5,6.8c0,3.9,2.8,6.8,6.9,6.8c2.5,0,4.3-1.2,4.8-1.7L191.1,25z M186.4,16.6c1.7,0,3.1,1.1,3.2,3.3
		h-7C182.9,17.8,184.5,16.6,186.4,16.6z"/>
</g>
<g>
	<path fill="#939598" d="M5.3,16.9H2.4l-0.8,2.2H0.5l2.8-7.7h1.1l2.8,7.7H6.1L5.3,16.9z M3.8,12.5c0,0-0.2,0.7-0.3,1.1L2.7,16H5
		l-0.9-2.4C4,13.2,3.9,12.5,3.8,12.5L3.8,12.5z"/>
	<path fill="#939598" d="M8.1,13.6h1v0.7c0,0.2,0,0.4,0,0.4h0c0.2-0.5,0.9-1.3,2.1-1.3c1.3,0,1.9,0.7,1.9,2.1v3.5h-1.1v-3.3
		c0-0.8-0.2-1.4-1-1.4c-0.8,0-1.5,0.6-1.7,1.4c-0.1,0.2-0.1,0.5-0.1,0.7v2.6H8.1V13.6z"/>
	<path fill="#939598" d="M17.3,13.5c1.6,0,3,1.2,3,2.9c0,1.7-1.3,2.9-3,2.9s-3-1.2-3-2.9C14.3,14.7,15.6,13.5,17.3,13.5z M17.3,18.4
		c1,0,1.9-0.8,1.9-2c0-1.1-0.9-2-1.9-2c-1,0-1.9,0.8-1.9,2C15.4,17.5,16.2,18.4,17.3,18.4z"/>
	<path fill="#939598" d="M21.7,14.6H21v-0.9h0.8v-1.6h1v1.6h1.3v0.9h-1.3V17c0,1.1,0.8,1.2,1.2,1.2c0.2,0,0.3,0,0.3,0v0.9
		c0,0-0.2,0-0.4,0c-0.7,0-2.1-0.2-2.1-2.1V14.6z"/>
	<path fill="#939598" d="M25.4,11.4h1.1v2.8c0,0.3,0,0.5,0,0.5h0c0.2-0.5,0.9-1.2,2-1.2c1.3,0,1.9,0.7,1.9,2.1v3.5h-1.1v-3.3
		c0-0.8-0.2-1.4-1-1.4c-0.8,0-1.5,0.6-1.7,1.4c-0.1,0.2-0.1,0.5-0.1,0.7v2.6h-1.1V11.4z"/>
	<path fill="#939598" d="M34.4,13.5c1.6,0,2.4,1.2,2.4,2.6c0,0.1,0,0.5,0,0.5h-4c0.1,1.2,0.9,1.8,1.9,1.8c1,0,1.6-0.6,1.6-0.6
		l0.4,0.8c0,0-0.8,0.8-2.1,0.8c-1.7,0-2.9-1.3-2.9-2.9C31.6,14.6,32.8,13.5,34.4,13.5z M35.7,15.7c0-1-0.6-1.4-1.3-1.4
		c-0.8,0-1.5,0.5-1.6,1.4H35.7z"/>
	<path fill="#939598" d="M38.1,13.6h1v1c0,0.2,0,0.4,0,0.4h0c0.3-0.8,0.9-1.4,1.7-1.4c0.1,0,0.3,0,0.3,0v1c0,0-0.1,0-0.3,0
		c-0.7,0-1.3,0.5-1.6,1.3c-0.1,0.3-0.1,0.7-0.1,1v2.3h-1.1V13.6z"/>
	<path fill="#939598" d="M48.6,14.5h-2.3v4.7h-1v-4.7h-0.7v-0.9h0.7v-0.2c0-1.8,1.4-2.1,2.1-2.1c0.2,0,0.4,0,0.4,0v0.9
		c0,0-0.1,0-0.3,0c-0.4,0-1.2,0.1-1.2,1.2v0.2h3.4v5.5h-1.1V14.5z M48.6,11.4h1.1v1.1h-1.1V11.4z"/>
	<path fill="#939598" d="M51.4,13.6h1v0.7c0,0.2,0,0.4,0,0.4h0c0.2-0.5,0.9-1.3,2.1-1.3c1.3,0,1.9,0.7,1.9,2.1v3.5h-1.1v-3.3
		c0-0.8-0.2-1.4-1-1.4c-0.8,0-1.5,0.6-1.7,1.4c-0.1,0.2-0.1,0.5-0.1,0.7v2.6h-1.1V13.6z"/>
	<path fill="#939598" d="M60.3,13.5c1.6,0,2.4,1.2,2.4,2.6c0,0.1,0,0.5,0,0.5h-4c0.1,1.2,0.9,1.8,1.9,1.8c1,0,1.6-0.6,1.6-0.6
		l0.4,0.8c0,0-0.8,0.8-2.1,0.8c-1.7,0-2.9-1.3-2.9-2.9C57.6,14.6,58.8,13.5,60.3,13.5z M61.6,15.7c0-1-0.6-1.4-1.3-1.4
		c-0.8,0-1.5,0.5-1.6,1.4H61.6z"/>
	<path fill="#939598" d="M9.6,26.7h1.1l1.3,3.7c0.1,0.3,0.2,0.8,0.2,0.8h0c0,0,0.1-0.4,0.2-0.8l1.3-3.7H15l-2,5.5h-1.2L9.6,26.7z"/>
	<path fill="#939598" d="M18.2,26.6c1.6,0,2.4,1.2,2.4,2.6c0,0.1,0,0.5,0,0.5h-4c0.1,1.2,0.9,1.8,1.9,1.8c1,0,1.6-0.6,1.6-0.6
		l0.4,0.8c0,0-0.8,0.8-2.1,0.8c-1.7,0-2.9-1.3-2.9-2.9C15.5,27.7,16.7,26.6,18.2,26.6z M19.6,28.9c0-1-0.6-1.4-1.3-1.4
		c-0.8,0-1.5,0.5-1.6,1.4H19.6z"/>
	<path fill="#939598" d="M21.9,26.7h1v0.7c0,0.2,0,0.4,0,0.4h0c0.2-0.5,0.9-1.3,2.1-1.3c1.3,0,1.9,0.7,1.9,2.1v3.5h-1.1V29
		c0-0.8-0.2-1.4-1-1.4c-0.8,0-1.5,0.6-1.7,1.4C23,29.1,23,29.4,23,29.7v2.6h-1.1V26.7z"/>
	<path fill="#939598" d="M28.7,27.7H28v-0.9h0.8v-1.6h1v1.6h1.3v0.9h-1.3v2.5c0,1.1,0.8,1.2,1.2,1.2c0.2,0,0.3,0,0.3,0v0.9
		c0,0-0.2,0-0.4,0c-0.7,0-2.1-0.2-2.1-2.1V27.7z"/>
	<path fill="#939598" d="M32.3,26.7h1.1V30c0,0.8,0.2,1.4,1,1.4c1.1,0,1.8-1,1.8-2.1v-2.6h1.1v5.5h-1v-0.7c0-0.2,0-0.4,0-0.4h0
		c-0.2,0.5-1,1.3-2,1.3c-1.2,0-1.9-0.7-1.9-2.1V26.7z"/>
	<path fill="#939598" d="M39,26.7h1v1c0,0.2,0,0.4,0,0.4h0c0.3-0.8,0.9-1.4,1.7-1.4c0.1,0,0.3,0,0.3,0v1c0,0-0.1,0-0.3,0
		c-0.7,0-1.3,0.5-1.6,1.3C40,29.3,40,29.7,40,30v2.3H39V26.7z"/>
	<path fill="#939598" d="M45.4,26.6c1.6,0,2.4,1.2,2.4,2.6c0,0.1,0,0.5,0,0.5h-4c0.1,1.2,0.9,1.8,1.9,1.8c1,0,1.6-0.6,1.6-0.6
		l0.4,0.8c0,0-0.8,0.8-2.1,0.8c-1.7,0-2.9-1.3-2.9-2.9C42.6,27.7,43.8,26.6,45.4,26.6z M46.7,28.9c0-1-0.6-1.4-1.3-1.4
		c-0.8,0-1.5,0.5-1.6,1.4H46.7z"/>
	<path fill="#939598" d="M51.9,24.5h1.1v2.5c0,0.3,0,0.5,0,0.5h0c0,0,0.5-0.9,1.8-0.9c1.5,0,2.4,1.2,2.4,2.9c0,1.8-1.1,2.9-2.5,2.9
		c-1.2,0-1.7-1-1.7-1h0c0,0,0,0.2,0,0.4v0.4h-1V24.5z M54.5,31.5c0.9,0,1.6-0.7,1.6-2c0-1.2-0.6-2-1.6-2c-0.8,0-1.6,0.6-1.6,2
		C52.9,30.5,53.4,31.5,54.5,31.5z"/>
	<path fill="#939598" d="M58,33.4c0,0,0.3,0.2,0.6,0.2c0.4,0,0.8-0.3,1-0.8l0.3-0.6l-2.3-5.5h1.2l1.4,3.6c0.1,0.3,0.2,0.7,0.2,0.7h0
		c0,0,0.1-0.4,0.2-0.7l1.3-3.6h1.1l-2.6,6.5c-0.3,0.9-1,1.3-1.8,1.3c-0.6,0-1.1-0.3-1.1-0.3L58,33.4z"/>
</g>
</svg>
